<svg width="827" height="424" viewBox="0 0 827 424" fill="none" xmlns="http://www.w3.org/2000/svg">
<g filter="url(#filter0_d_11_8)">
<rect x="15" y="8" width="797" height="394" rx="20" fill="#EEF4DE"/>
</g>
<rect x="45" y="59" width="736" height="86" rx="15" fill="#CFE3BE"/>
<rect x="70" y="73" width="107" height="59" rx="10" fill="#EEF4DE"/>
<rect x="203" y="81" width="516" height="18" rx="5" fill="#EEF4DE"/>
<rect x="203" y="105" width="374" height="18" rx="5" fill="#EEF4DE"/>
<rect x="45" y="162" width="736" height="86" rx="15" fill="#CFE3BE"/>
<rect x="70" y="176" width="107" height="59" rx="10" fill="#EEF4DE"/>
<rect x="203" y="184" width="516" height="18" rx="5" fill="#EEF4DE"/>
<rect x="203" y="208" width="374" height="18" rx="5" fill="#EEF4DE"/>
<rect x="45" y="265" width="736" height="86" rx="15" fill="#CFE3BE"/>
<rect x="70" y="279" width="107" height="59" rx="10" fill="#EEF4DE"/>
<rect x="203" y="287" width="516" height="18" rx="5" fill="#EEF4DE"/>
<rect x="203" y="311" width="374" height="18" rx="5" fill="#EEF4DE"/>
<defs>
<filter id="filter0_d_11_8" x="0" y="0" width="827" height="424" filterUnits="userSpaceOnUse" color-interpolation-filters="sRGB">
<feFlood flood-opacity="0" result="BackgroundImageFix"/>
<feColorMatrix in="SourceAlpha" type="matrix" values="0 0 0 0 0 0 0 0 0 0 0 0 0 0 0 0 0 0 127 0" result="hardAlpha"/>
<feOffset dy="7"/>
<feGaussianBlur stdDeviation="7.5"/>
<feComposite in2="hardAlpha" operator="out"/>
<feColorMatrix type="matrix" values="0 0 0 0 0 0 0 0 0 0 0 0 0 0 0 0 0 0 0.25 0"/>
<feBlend mode="normal" in2="BackgroundImageFix" result="effect1_dropShadow_11_8"/>
<feBlend mode="normal" in="SourceGraphic" in2="effect1_dropShadow_11_8" result="shape"/>
</filter>
</defs>
</svg>
