<svg width="45" height="73" viewBox="0 0 45 73" fill="none" xmlns="http://www.w3.org/2000/svg">
<path d="M44.0626 29.0173C38.8402 16.0869 21.4203 22.1522 13.1177 30.9662C6.71664 37.7615 11.1022 52.4043 11.1022 52.4043C11.1022 52.4043 24.3186 45.0593 29.4088 44.4423C34.4991 43.8253 35.1932 48.2705 34.5762 51.6921C33.7278 56.3967 30.5657 59.1732 26.2467 59.9444C21.9277 60.7157 11.8351 53.9618 11.8351 53.9618L27.7762 72.5598L44.0626 56.3967C44.0626 56.3967 45.4669 50.1598 44.0626 46.6018C41.6514 40.4927 35.9247 39.1727 29.4088 38.3494C23.2918 37.5766 14.0609 42.0514 14.0609 42.0514C14.0609 42.0514 17.6993 36.1585 21.3878 34.1075C27.7441 30.5732 34.7989 30.1555 39.9749 35.2644C42.5154 37.7719 44.0626 43.884 44.0626 43.884C44.0626 43.884 46.1718 34.2397 44.0626 29.0173Z" fill="#025E29" fill-opacity="0.7"/>
<path d="M25.2941 12.358C27.7115 8.92884 34.1979 4.93275 34.1979 4.93275C34.1979 4.93275 35.1046 12.7183 32.6738 16.8457C30.0432 21.3122 22.4886 23.2193 22.4886 23.2193C22.4886 23.2193 22.4966 16.3263 25.2941 12.358Z" fill="#025E29" fill-opacity="0.7"/>
<path d="M11.1622 19.3361C15.3335 19.7876 21.9736 23.5228 21.9736 23.5228C21.9736 23.5228 15.6042 28.0909 10.8157 27.9663C5.63393 27.8314 0.302824 22.1491 0.302824 22.1491C0.302824 22.1491 6.33522 18.8137 11.1622 19.3361Z" fill="#025E29" fill-opacity="0.7"/>
<path d="M19.614 9.71104C21.6091 13.9505 21.909 22.4531 21.909 22.4531C21.909 22.4531 13.8501 19.0367 11.1845 14.3989C8.30002 9.38015 9.6209 1.69172 9.6209 1.69172C9.6209 1.69172 17.3054 4.8052 19.614 9.71104Z" fill="#025E29" fill-opacity="0.7"/>
</svg>
